<svg width="40" height="49" viewBox="0 0 40 49" fill="none" xmlns="http://www.w3.org/2000/svg">
<path d="M0.844 49L2.068 41.996L21.312 25.268C25.5733 21.5507 27.9533 18.3773 28.452 15.748C28.7693 13.8893 28.452 12.3933 27.5 11.26C26.548 10.1267 25.2107 9.56 23.488 9.56C20.1333 9.56 17.232 11.4867 14.784 15.34L7.304 10.512C9.38933 7.20266 11.928 4.70933 14.92 3.032C17.9573 1.30933 21.2213 0.447997 24.712 0.447997C28.8827 0.447997 32.3053 1.92133 34.98 4.868C37.7 7.76933 38.652 11.5093 37.836 16.088C37.3373 18.808 36.2947 21.3013 34.708 23.568C33.1213 25.7893 30.8773 28.1467 27.976 30.64L17.028 39.956H34.3L32.736 49H0.844Z" fill="#046DBF"/>
</svg>
