<svg width="39" height="49" viewBox="0 0 39 49" fill="none" xmlns="http://www.w3.org/2000/svg">
<path d="M38.284 0.399997L36.992 8.152L26.112 19.916C29.0587 21.0493 31.3027 22.8627 32.844 25.356C34.3853 27.804 34.884 30.66 34.34 33.924C33.4787 38.7747 31.28 42.492 27.744 45.076C24.208 47.66 20.06 48.952 15.3 48.952C11.628 48.952 8.432 48.1133 5.712 46.436C3.03733 44.7133 1.17867 42.1973 0.136 38.888L8.636 34.332C9.67867 37.9587 12.24 39.772 16.32 39.772C18.7227 39.772 20.672 39.2053 22.168 38.072C23.7093 36.8933 24.6613 35.3067 25.024 33.312C25.3413 31.3627 24.956 29.7987 23.868 28.62C22.78 27.4413 21.0347 26.852 18.632 26.852H16.524L13.872 21.412L25.092 9.172H6.868L8.364 0.399997H38.284Z" fill="#046DBF"/>
</svg>
